<svg xmlns="http://www.w3.org/2000/svg" id="Layer_1" data-name="Layer 1" viewBox="0 0 64 64"><defs><style>.cls-1{fill:#ff8f50;}.cls-2{fill:#1c464e;}</style></defs><circle class="cls-1" cx="32" cy="32" r="32"></circle><path class="cls-2" d="M26,33.29a.65.65,0,0,0-.88-.24.64.64,0,0,0-.23.88,8.14,8.14,0,0,0,14.09,0,.64.64,0,0,0-1.11-.65,6.86,6.86,0,0,1-11.87,0Z"></path><path class="cls-2" d="M43.72,23.81a.65.65,0,0,0,.59-.7.64.64,0,0,0-.7-.59l-3.84.32a.66.66,0,0,0-.55.44h0a.14.14,0,0,0,0,.06l-.85,3.76a.65.65,0,0,0,.48.77H39a.63.63,0,0,0,.62-.5l.59-2.58a11,11,0,1,1-8.25-3.75.65.65,0,0,0,0-1.29A12.26,12.26,0,1,0,41.21,24Z"></path></svg>