<svg xmlns="http://www.w3.org/2000/svg" id="Layer_1" data-name="Layer 1" viewBox="0 0 52 52"><defs><style>.cls-1{fill:#1c464e;}</style></defs><path class="cls-1" d="M26,1A25,25,0,1,1,1,26,25,25,0,0,1,26,1m0-.5A25.5,25.5,0,1,0,51.5,26,25.53,25.53,0,0,0,26,.5Z"></path><path class="cls-1" d="M16.29,38a2.16,2.16,0,0,0,4.32,0,6,6,0,0,0-2.16-4.12A6,6,0,0,0,16.29,38Z"></path><path class="cls-1" d="M38.79,35.6,24.09,24.12l3.68-4.71,2.8,2.18-2.81,3.59a.57.57,0,0,0,.1.79.56.56,0,0,0,.78-.1l2.81-3.59,1.6,1.26a.66.66,0,0,0,.35.11.56.56,0,0,0,.44-.21l.2-.26a3.16,3.16,0,0,0-.14-4l1.79-2.29a2.85,2.85,0,0,0,.54-2.39,2.89,2.89,0,0,0-5.15-1.09l-1.73,2.21a3.11,3.11,0,0,0-1.85-.34,3.15,3.15,0,0,0-2.1,1.19l-.2.26a.52.52,0,0,0-.12.41.58.58,0,0,0,.21.37l1.6,1.25-3.68,4.72L13.9,16.16a.55.55,0,0,0-.78.1.56.56,0,0,0,.09.78l9.34,7.29a15.35,15.35,0,0,0-1.59,3l-1.16,3a.56.56,0,0,0,.17.65l1.33,1a.6.6,0,0,0,.34.11A.56.56,0,0,0,22,32l2.6-1.85A16.24,16.24,0,0,0,26,28.93a.56.56,0,0,0,0-.79.56.56,0,0,0-.79,0,12.75,12.75,0,0,1-1.34,1.09l-2.26,1.61L21,30.29l1-2.59A13,13,0,0,1,23.43,25L38.1,36.48a.54.54,0,0,0,.34.12.55.55,0,0,0,.44-.21A.57.57,0,0,0,38.79,35.6ZM27.63,16.35a2,2,0,0,1,1.51.42.56.56,0,0,0,.78-.1l2-2.61a1.85,1.85,0,0,1,2.24-.57,1.77,1.77,0,0,1,.94,1.21,1.8,1.8,0,0,1-.33,1.47l-2.1,2.68a.55.55,0,0,0,.1.78,2.05,2.05,0,0,1,.48,2.67l-3.93-3.06-1.34-1h0l-1.59-1.25A2.08,2.08,0,0,1,27.63,16.35Z"></path></svg>