<svg xmlns="http://www.w3.org/2000/svg" id="Layer_1" data-name="Layer 1" viewBox="0 0 52 52"><defs><style>.cls-1{fill:#1c464e;}</style></defs><path class="cls-1" d="M26,1A25,25,0,1,1,1,26,25,25,0,0,1,26,1m0-.5A25.5,25.5,0,1,0,51.5,26,25.53,25.53,0,0,0,26,.5Z"></path><path class="cls-1" d="M33.46,25.46a.56.56,0,0,0-.39.69,13.85,13.85,0,0,1,.61,3.79,8.08,8.08,0,1,1-16.15,0c0-.08-.11-7.68,8.08-15.71a31.52,31.52,0,0,1,4.55,5.56.56.56,0,1,0,.95-.61A33.65,33.65,0,0,0,26,13a.56.56,0,0,0-.78,0c-9,8.54-8.82,16.6-8.81,16.92A9.2,9.2,0,0,0,34.8,30a14.23,14.23,0,0,0-.65-4.1A.56.56,0,0,0,33.46,25.46Z"></path><path class="cls-1" d="M38.2,15.31a.56.56,0,0,0-.79.08L25.56,30l-2.64-2.5a.55.55,0,0,0-.79,0,.56.56,0,0,0,0,.79l3.07,2.92a.57.57,0,0,0,.39.16h0a.55.55,0,0,0,.4-.21L38.29,16.1A.57.57,0,0,0,38.2,15.31Z"></path></svg>