<svg xmlns="http://www.w3.org/2000/svg" id="Layer_1" data-name="Layer 1" viewBox="0 0 52 52"><defs><style>.cls-1{fill:#1c464e;}</style></defs><path class="cls-1" d="M26,1A25,25,0,1,1,1,26,25,25,0,0,1,26,1m0-.5A25.5,25.5,0,1,0,51.5,26,25.53,25.53,0,0,0,26,.5Z"></path><path class="cls-1" d="M32.56,17.75a.57.57,0,0,0-.77,0c-7.39,7-7.27,13.69-7.26,14a7.65,7.65,0,0,0,15.29,0C39.83,31.44,40,24.79,32.56,17.75Zm-.38,20.49a6.54,6.54,0,0,1-6.53-6.55c0-.06-.09-6.22,6.53-12.76,6.61,6.54,6.53,12.7,6.53,12.78A6.54,6.54,0,0,1,32.18,38.24Z"></path><path class="cls-1" d="M22.64,12.44c-.83,3-1.49,3.65-4.48,4.47,3,.83,3.65,1.49,4.48,4.47.82-3,1.49-3.64,4.47-4.47C24.13,16.09,23.46,15.42,22.64,12.44Z"></path><path class="cls-1" d="M17.78,21.38c-1.1,4-2,4.86-6,6,4,1.09,4.85,2,6,5.95,1.09-4,2-4.86,5.95-5.95C19.76,26.24,18.87,25.35,17.78,21.38Z"></path></svg>