<svg xmlns="http://www.w3.org/2000/svg" id="Layer_1" data-name="Layer 1" viewBox="0 0 52 52"><defs><style>.cls-1{fill:#1c464e;}</style></defs><path class="cls-1" d="M26,1A25,25,0,1,1,1,26,25,25,0,0,1,26,1m0-.5A25.5,25.5,0,1,0,51.5,26,25.53,25.53,0,0,0,26,.5Z"></path><path class="cls-1" d="M22.32,16.71h.18v3.78a.6.6,0,0,0,.6.6.6.6,0,0,0,.6-.6V16.71h4.35v5a10.5,10.5,0,0,0,1.31,5.08.6.6,0,0,0,.53.31.51.51,0,0,0,.29-.08.59.59,0,0,0,.23-.81,9.34,9.34,0,0,1-1.16-4.5v-5h.4a.6.6,0,0,0,.6-.6V13.24a.6.6,0,0,0-.6-.6H22.32a.6.6,0,0,0-.6.6v2.87A.6.6,0,0,0,22.32,16.71Zm.6-2.87h6.13v1.67H22.92Z"></path><path class="cls-1" d="M34.62,35.68a.61.61,0,0,0-.72.46,2.39,2.39,0,0,1-2.36,1.91H20.22a2.41,2.41,0,0,1-2.1-3.59l4.24-7.58a.6.6,0,0,0-.23-.82.61.61,0,0,0-.82.23l-4.24,7.58a3.62,3.62,0,0,0,3.15,5.39H31.54a3.61,3.61,0,0,0,3.54-2.86A.61.61,0,0,0,34.62,35.68Z"></path><circle class="cls-1" cx="23.48" cy="33.95" r="2"></circle><circle class="cls-1" cx="27.53" cy="31.16" r="1.2"></circle><path class="cls-1" d="M39.77,36.28,13,15.34a.6.6,0,0,0-.74.95L39,37.23a.63.63,0,0,0,.37.12.6.6,0,0,0,.37-1.07Z"></path></svg>