<svg xmlns="http://www.w3.org/2000/svg" id="Layer_1" data-name="Layer 1" viewBox="0 0 52 52"><defs><style>.cls-1{fill:#1c464e;}</style></defs><path class="cls-1" d="M26,1A25,25,0,1,1,1,26,25,25,0,0,1,26,1m0-.5A25.5,25.5,0,1,0,51.5,26,25.53,25.53,0,0,0,26,.5Z"></path><path class="cls-1" d="M21.34,40.29a.5.5,0,0,1-.43-.25c-.31-.52-7.54-12.88-6.5-17a2,2,0,0,1,3.75.06l1.47,3.48c-.2-2.46-.79-9.87-.48-11.39A1.86,1.86,0,0,1,21,13.74,1.92,1.92,0,0,1,22.64,15L24,23.68c.06-2.73.22-9.23.33-10.31a2.08,2.08,0,0,1,1.87-1.64,1.82,1.82,0,0,1,1.71,1.59l.74,11.07s0,.05,0,.08a1.6,1.6,0,0,0,0-.21L30,15.55a1.91,1.91,0,0,1,2-1.48,1.86,1.86,0,0,1,1.57,2.12l-.32,9.67a5.35,5.35,0,0,0,.19,1.62.86.86,0,0,0,.3-.33c.23-.7,1.58-4.5,3.27-5A1.64,1.64,0,0,1,39.3,23.6c0,.48-1.15,9.37-6.16,16.48a.5.5,0,1,1-.82-.58c4.66-6.6,5.88-15.07,6-15.86a.8.8,0,0,0-.28-.51.84.84,0,0,0-.71,0c-.88.26-2.07,2.74-2.64,4.42a1.5,1.5,0,0,1-1.43,1c-.67-.08-1-1-1-2.66l.32-9.7c0-.11,0-1-.64-1.08a.9.9,0,0,0-1,.69l-1.27,8.68c-.11.55-.39,1.42-1.06,1.42s-.93-.94-1-1.35l-.75-11.07s-.13-.69-.73-.7h0c-.61,0-.84.78-.85.82C25.2,14.78,25,24.81,25,24.91S25,25,25,25c-.13.51-.37.79-.73.84-.51.09-.86-.43-1-.59a.48.48,0,0,1-.06-.18l-1.53-9.86a1,1,0,0,0-.78-.49c-.52-.05-.78.64-.79.67-.26,1.28.33,8.91.58,11.74.06.55-.07.93-.39,1.11a.92.92,0,0,1-1-.09.52.52,0,0,1-.18-.21l-1.9-4.51A1.08,1.08,0,0,0,16,22.77a1.05,1.05,0,0,0-.67.55c-.75,3.05,4.38,12.75,6.42,16.22a.49.49,0,0,1-.18.68A.47.47,0,0,1,21.34,40.29ZM19.69,27.51Z"></path><path class="cls-1" d="M26.56,39.64a.5.5,0,0,1-.33-.12c-.16-.14-3.92-3.41-4-6.23a2.74,2.74,0,0,1,.87-2.13,2.79,2.79,0,0,1,2.64-.82,2.85,2.85,0,0,1,1.72,1.4,3.27,3.27,0,0,1,1.69-.92,2.32,2.32,0,0,1,1.85.54A2.89,2.89,0,0,1,32.29,34c-.27,2.88-5.29,5.52-5.5,5.63A.64.64,0,0,1,26.56,39.64Zm-1.44-8.37a1.9,1.9,0,0,0-1.32.6,1.78,1.78,0,0,0-.57,1.39c.05,1.83,2.27,4.24,3.4,5.28,1.48-.83,4.5-2.87,4.67-4.68a1.94,1.94,0,0,0-.92-1.72,1.34,1.34,0,0,0-1.08-.33A2.85,2.85,0,0,0,27.73,33a.5.5,0,0,1-.49.21.48.48,0,0,1-.4-.35,2.08,2.08,0,0,0-1.36-1.5A1.47,1.47,0,0,0,25.12,31.27Z"></path></svg>