<svg xmlns="http://www.w3.org/2000/svg" id="Layer_1" data-name="Layer 1" viewBox="0 0 52 52"><defs><style>.cls-1{fill:#1c464e;}</style></defs><path class="cls-1" d="M26,1A25,25,0,1,1,1,26,25,25,0,0,1,26,1m0-.5A25.5,25.5,0,1,0,51.5,26,25.53,25.53,0,0,0,26,.5Z"></path><path class="cls-1" d="M37.69,22.38A6.56,6.56,0,0,0,34,20.88a.41.41,0,0,0,0-.16c0-.71-.14-7-2.46-8.76a2.24,2.24,0,0,0-2-.34,2.32,2.32,0,0,0-1.47,1.14,2.85,2.85,0,0,0-.3,1.25,4.34,4.34,0,0,0-1.68-1.08,2.51,2.51,0,0,0-2.3.37,2.64,2.64,0,0,0-1.19,2.17c0,3,4.62,6.85,6.17,8a5.71,5.71,0,0,0-.51,1.16c-1.73-.72-6.33-2.13-10.31,1.06a8.86,8.86,0,0,0-2.75,3.83A3.38,3.38,0,0,0,12,32.78,3.4,3.4,0,0,0,15.46,36c1,2.07,3.05,4.17,7.42,4.46,0,0,.29,0,.68,0a10.42,10.42,0,0,0,3.71-.64h7a.6.6,0,0,0,.56-.38l.26-.69a1.82,1.82,0,0,0-.21-1.66,1.76,1.76,0,0,0-.74-.61l.57-1.93a5.63,5.63,0,0,1,3.06-3.45A3.89,3.89,0,0,0,40,27.4,6.22,6.22,0,0,0,37.69,22.38ZM29.1,13.31a1.18,1.18,0,0,1,.76-.56,1.09,1.09,0,0,1,1,.16c1.56,1.16,2,6,2,7.83a.42.42,0,0,0,0,.15,5.59,5.59,0,0,0-.59.08c-.15,0-.28.08-.42.12a28.47,28.47,0,0,0-2.68-5.32A3.5,3.5,0,0,1,29.1,13.31Zm-5.33,2.18a1.45,1.45,0,0,1,.69-1.22,1.37,1.37,0,0,1,1.27-.22c2.05.65,4.19,5.23,5.05,7.48a5.21,5.21,0,0,0-1.33,1C27.52,21.06,23.74,17.66,23.77,15.49ZM13.18,32.78a2.1,2.1,0,0,1,1.66-2,8.26,8.26,0,0,0,.15,4A2.16,2.16,0,0,1,13.18,32.78Zm24-2.71a6.79,6.79,0,0,0-3.69,4.19l-.74,2.52a.59.59,0,0,0,.56.76.61.61,0,0,1,.51.27.59.59,0,0,1,.07.56l-.11.31h-4.7A4.11,4.11,0,0,0,30,37.47.59.59,0,1,0,28.94,37c-1.29,2.68-5.92,2.34-6,2.33-3.6-.23-5.89-1.82-6.8-4.71a7.39,7.39,0,0,1,2.52-7.92,7.83,7.83,0,0,1,5-1.74,10.64,10.64,0,0,1,4.68,1.13.61.61,0,0,0,.56,0,.59.59,0,0,0,.31-.46A4.4,4.4,0,0,1,30,23.75s0,0,0,0a0,0,0,0,1,0,0,4,4,0,0,1,2.51-1.58,5.27,5.27,0,0,1,4.4,1.15,5.12,5.12,0,0,1,1.88,4.1A2.72,2.72,0,0,1,37.23,30.07Z"></path><path class="cls-1" d="M33.69,24.89H33.2a.58.58,0,0,0-.59.59.59.59,0,0,0,.59.59h.49a.6.6,0,0,0,.59-.59A.59.59,0,0,0,33.69,24.89Z"></path></svg>