<svg xmlns="http://www.w3.org/2000/svg" id="Layer_1" data-name="Layer 1" viewBox="0 0 52 52"><defs><style>.cls-1{fill:#1c464e;}</style></defs><path class="cls-1" d="M44.45,29.76l-5.26-4.27-4.28-7.16a1,1,0,0,0-.86-.49H25.82a1,1,0,0,0,0,2h2v10l-19,.1V25.9a1,1,0,0,0-2,0V37.22a1,1,0,0,0,1,1h3a4,4,0,0,0,7.69,0H32.85a4,4,0,0,0,7.69,0h3.28a1,1,0,0,0,1-1V30.53A1,1,0,0,0,44.45,29.76Zm-11-9.92,3.17,5.31H29.82V19.84ZM14.7,39.16a2,2,0,1,1,2-2A2,2,0,0,1,14.7,39.16Zm22,0a2,2,0,1,1,2-2A2,2,0,0,1,36.7,39.16Zm6.12-2.94H40.59a4,4,0,0,0-7.79,0H18.59a4,4,0,0,0-7.79,0h-2V32l20-.11a1,1,0,0,0,1-1V27.15h8.25L42.82,31Z"></path><path class="cls-1" d="M7.12,19.66c0,.13,0,.25.08.37a4.82,4.82,0,0,0,.66,1.54,5.8,5.8,0,0,0,.75.89l.05.05,5.45,5.08.06-.06a2.42,2.42,0,0,0,.75-2h0a5.76,5.76,0,0,1,.45-2.66,5.6,5.6,0,0,1,.44-.84A5.77,5.77,0,0,1,16.74,21c.16-.15.33-.29.5-.42a5.44,5.44,0,0,1,.83-.51,5.81,5.81,0,0,1,2.59-.62,5.49,5.49,0,0,1,.8.06h0a2.32,2.32,0,0,0,1.92-.6l0,0a2.13,2.13,0,0,0,0-.36,1.27,1.27,0,0,0,0-.2,4.83,4.83,0,0,0-.79-2.18,5,5,0,0,0-4-2.24,5.65,5.65,0,0,0-1,.06A5.08,5.08,0,0,0,15.25,15h0a5,5,0,0,0-2.37-1.1,5.54,5.54,0,0,0-1-.06,5,5,0,0,0-4.81,5s0,.11,0,.17C7.07,19.24,7.09,19.45,7.12,19.66Z"></path><path class="cls-1" d="M16.29,26.6h0a4,4,0,0,0,.48.09,5,5,0,0,0,4.08-1.29A4.71,4.71,0,0,0,21.92,24a5,5,0,0,0,.53-2.16h0c0-.14,0-.28,0-.42h0a3.93,3.93,0,0,0-.06-.48c0-.15-.06-.29-.09-.44v0a3.5,3.5,0,0,0-.46-.14l-.47-.09a5.07,5.07,0,0,0-2.93.49,4.48,4.48,0,0,0-.72.44,4.94,4.94,0,0,0-.44.36,5.22,5.22,0,0,0-.8,1,4.14,4.14,0,0,0-.38.72,5.06,5.06,0,0,0-.39,2.3l0,.32,0,.15L19,22.93a.41.41,0,0,1,.58,0,.42.42,0,0,1,0,.58Z"></path></svg>