<svg xmlns="http://www.w3.org/2000/svg" id="Layer_1" data-name="Layer 1" viewBox="0 0 64 64"><defs><style>.cls-1{fill:#cfde5d;}.cls-2{fill:#1c464e;}</style></defs><circle class="cls-1" cx="32" cy="32" r="32"></circle><path class="cls-2" d="M28.52,26.65c-1.62,5.89-2.94,7.2-8.83,8.83,5.89,1.63,7.21,2.94,8.83,8.83,1.63-5.89,2.94-7.2,8.83-8.83C31.46,33.85,30.15,32.54,28.52,26.65Z"></path><path class="cls-2" d="M38.56,19.69c-1,3.67-1.83,4.49-5.49,5.5,3.66,1,4.48,1.83,5.49,5.5,1-3.67,1.84-4.49,5.5-5.5C40.4,24.18,39.58,23.36,38.56,19.69Z"></path><path class="cls-2" d="M23.17,19.69C22.53,22,22,22.53,19.69,23.17c2.32.64,2.84,1.16,3.48,3.48.64-2.32,1.16-2.84,3.48-3.48C24.33,22.53,23.81,22,23.17,19.69Z"></path><path class="cls-2" d="M40.83,35.25c-.64,2.32-1.16,2.83-3.48,3.48,2.32.64,2.84,1.16,3.48,3.47.64-2.31,1.16-2.83,3.48-3.47C42,38.08,41.47,37.57,40.83,35.25Z"></path></svg>