<svg xmlns="http://www.w3.org/2000/svg" id="Layer_1" data-name="Layer 1" viewBox="0 0 64 64"><defs><style>.cls-1{fill:#ffdd49;}.cls-2{fill:#1c464e;}</style></defs><circle class="cls-1" cx="32" cy="32" r="32"></circle><circle class="cls-2" cx="31.51" cy="33.25" r="1.94"></circle><circle class="cls-2" cx="23.59" cy="38.98" r="3.88"></circle><circle class="cls-2" cx="41.06" cy="35.1" r="3.24"></circle><circle class="cls-2" cx="35.15" cy="41.57" r="1.29"></circle><circle class="cls-2" cx="21" cy="30.76" r="1.29"></circle><path class="cls-2" d="M38.15,27.39a4.39,4.39,0,0,1-2.73-.88,5.93,5.93,0,0,0-6.85,0,4.64,4.64,0,0,1-5.44,0,5.64,5.64,0,0,0-3.43-1.09v1.3a4.39,4.39,0,0,1,2.73.88,5.91,5.91,0,0,0,6.84,0,4.66,4.66,0,0,1,5.45,0,5.93,5.93,0,0,0,6.85,0,4.39,4.39,0,0,1,2.73-.88v-1.3a5.64,5.64,0,0,0-3.43,1.09A4.36,4.36,0,0,1,38.15,27.39Z"></path><rect class="cls-2" x="31.35" y="9.67" width="1.29" height="24.6" transform="translate(9.55 53.63) rotate(-89.13)"></rect></svg>