<svg xmlns="http://www.w3.org/2000/svg" id="Layer_1" data-name="Layer 1" viewBox="0 0 52 52"><defs><style>.cls-1{fill:#1c464e;}</style></defs><path class="cls-1" d="M49.93,23.92h0a4,4,0,0,1-3.34-3.34c0-.21-.18-.34-.49-.35a.47.47,0,0,0-.35.48A4.79,4.79,0,0,0,47,23.24,31.87,31.87,0,0,1,5.21,23a4.73,4.73,0,0,0,1-2.31.44.44,0,0,0-.41-.5.47.47,0,0,0-.42.36,4,4,0,0,1-3.35,3.34.44.44,0,0,0-.35.49.55.55,0,0,0,.49.35,4.78,4.78,0,0,0,2.41-1.11A32.66,32.66,0,0,0,26.2,31.78a32.67,32.67,0,0,0,21.4-8,4.88,4.88,0,0,0,2.26,1,.43.43,0,0,0,.07-.85Z"></path></svg>