<svg xmlns="http://www.w3.org/2000/svg" id="Layer_1" data-name="Layer 1" viewBox="0 0 64 64"><defs><style>.cls-1{fill:#ffbbed;}.cls-2{fill:#1c464e;}</style></defs><circle class="cls-1" cx="32" cy="32" r="32"></circle><path class="cls-2" d="M32,35.53a5.38,5.38,0,0,0,5.38-5.38s.16-5-5.38-10.29c-5.54,5.28-5.38,10.29-5.38,10.29A5.38,5.38,0,0,0,32,35.53Z"></path><path class="cls-2" d="M37.8,37.09A9.35,9.35,0,0,1,32,39a9.35,9.35,0,0,1-5.8-1.86A10.6,10.6,0,0,0,19.69,35v1.29a9.38,9.38,0,0,1,5.81,1.87A10.55,10.55,0,0,0,32,40.25a10.55,10.55,0,0,0,6.5-2.07,9.38,9.38,0,0,1,5.81-1.87V35A10.6,10.6,0,0,0,37.8,37.09Z"></path><path class="cls-2" d="M32,42.84A9.35,9.35,0,0,1,26.2,41a10.67,10.67,0,0,0-6.51-2.07v1.3a9.38,9.38,0,0,1,5.81,1.86A10.54,10.54,0,0,0,32,44.14a10.54,10.54,0,0,0,6.5-2.08,9.38,9.38,0,0,1,5.81-1.86V38.9A10.67,10.67,0,0,0,37.8,41,9.35,9.35,0,0,1,32,42.84Z"></path></svg>