<svg xmlns="http://www.w3.org/2000/svg" id="Layer_1" data-name="Layer 1" viewBox="0 0 52 52"><defs><style>.cls-1{fill:#1c464e;}</style></defs><path class="cls-1" d="M44,26A18,18,0,1,0,13.73,39.13a1,1,0,0,0,.32.3A17.9,17.9,0,0,0,38.3,39.1a1.1,1.1,0,0,0,.23-.2A17.94,17.94,0,0,0,44,26ZM10,26A16,16,0,1,1,38.3,36.22a12.71,12.71,0,0,0-7.91-8,7.54,7.54,0,1,0-8.39,0,12.86,12.86,0,0,0-8,8.33A15.94,15.94,0,0,1,10,26Zm10.65-4.06a5.54,5.54,0,1,1,5.54,5.53A5.54,5.54,0,0,1,20.65,21.94Zm-5,16.23a10.75,10.75,0,0,1,21-.29,15.93,15.93,0,0,1-21,.29Z"></path></svg>